{"title":"Breaking Bad S05E09 Blood Money (1920x1080)(5.1) [Phr0stY] .mkv","uid":8806404,"size":2001716050,"categoryP":"video","categoryS":"hd___tv_shows","magnet":"?xt=urn:btih:61cd9bdad2bff8183b302043c8de67b5e552ee2a&amp;dn=Breaking+Bad+S05E09+Blood+Money+%281920x1080%29%285.1%29+%5BPhr0stY%5D+.mkv&amp;tr=udp%3A%2F%2Ftracker.openbittorrent.com%3A80&amp;tr=udp%3A%2F%2Fopen.demonii.com%3A1337&amp;tr=udp%3A%2F%2Ftracker.coppersurfer.tk%3A6969&amp;tr=udp%3A%2F%2Fexodus.desync.com%3A6969","seeders":0,"leechers":1,"uploader":"frostyon420","files":-1,"time":1376342097,"description":"Please Seed!!!!!!!\n\n\n &lt;a href=&quot;\nhttps://forum.suprbay.org/showthread.php?tid=154520&quot; rel=&quot;nofollow&quot; target=&quot;_NEW&quot;&gt;\nhttps://forum.suprbay.org/showthread.php?tid=154520&lt;/a&gt;\n\n\n\n\nComplete name                            : D:TV ShowsBreaking Bad Season 5 (1280x720) [Phr0stY]Breaking Bad S05E09 Blood Money (1920x1080)(5.1) [Phr0stY] .mkv\nFormat                                   : Matroska\nFormat version                           : Version 2\nFile size                                : 1.86 GiB\nDuration                                 : 47mn 21s\nOverall bit rate                         : 5 636 Kbps\nWriting application                      : Lavf54.59.106\nWriting library                          : Lavf54.59.106\n\nVideo\nID                                       : 1\nFormat                                   : AVC\nFormat/Info                              : Advanced Video Codec\nFormat profile                           : &lt;a class=&quot;__cf_email__&quot; href=&quot;/cdn-cgi/l/email-protection&quot; data-cfemail=&quot;a0e8c9c7c8e0ec948e90&quot;&gt;[email&amp;#160;protected]&lt;/a&gt;&lt;script cf-hash='f9e31' type=&quot;text/javascript&quot;&gt;\n/* &lt;![CDATA[ */!function(){try{var t=&quot;currentScript&quot;in document?document.currentScript:function(){for(var t=document.getElementsByTagName(&quot;script&quot;),e=t.length;e--;)if(t[e].getAttribute(&quot;cf-hash&quot;))return t[e]}();if(t&amp;&amp;t.previousSibling){var e,r,n,i,c=t.previousSibling,a=c.getAttribute(&quot;data-cfemail&quot;);if(a){for(e=&quot;&quot;,r=parseInt(a.substr(0,2),16),n=2;a.length-n;n+=2)i=parseInt(a.substr(n,2),16)^r,e+=String.fromCharCode(i);e=document.createTextNode(e),c.parentNode.replaceChild(e,c)}}}catch(u){}}();/* ]]&gt; */&lt;/script&gt;\nFormat settings, CABAC                   : Yes\nFormat settings, ReFrames                : 4 frames\nCodec ID                                 : V_MPEG4/ISO/AVC\nDuration                                 : 47mn 21s\nBit rate                                 : 5 140 Kbps\nWidth                                    : 1 916 pixels\nHeight                                   : 1 076 pixels\nDisplay aspect ratio                     : 16:9\nFrame rate mode                          : Constant\nFrame rate                               : 23.976 fps\nColor space                              : YUV\nChroma subsampling                       : 4:2:0\nBit depth                                : 8 bits\nScan type                                : Progressive\nBits/(Pixel*Frame)                       : 0.104\nStream size                              : 1.70 GiB (91%)\nDefault                                  : Yes\nForced                                   : No\nColor primaries                          : BT.709\nTransfer characteristics                 : BT.709\nMatrix coefficients                      : BT.709\n\nAudio\nID                                       : 2\nFormat                                   : AC-3\nFormat/Info                              : Audio Coding 3\nMode extension                           : CM (complete main)\nFormat settings, Endianness              : Big\nCodec ID                                 : A_AC3\nDuration                                 : 47mn 21s\nBit rate mode                            : Constant\nBit rate                                 : 384 Kbps\nChannel(s)                               : 6 channels\nChannel positions                        : Front: L C R, Side: L R, LFE\nSampling rate                            : 48.0 KHz\nBit depth                                : 16 bits\nCompression mode                         : Lossy\nStream size                              : 130 MiB (7%)\nDefault                                  : Yes\nForced                                   : No\n\n","torrent":{"xt":"urn:btih:61cd9bdad2bff8183b302043c8de67b5e552ee2a","amp;dn":"Breaking+Bad+S05E09+Blood+Money+%281920x1080%29%285.1%29+%5BPhr0stY%5D+.mkv","amp;tr":["udp%3A%2F%2Ftracker.openbittorrent.com%3A80","udp%3A%2F%2Fopen.demonii.com%3A1337","udp%3A%2F%2Ftracker.coppersurfer.tk%3A6969","udp%3A%2F%2Fexodus.desync.com%3A6969"],"infoHash":"61cd9bdad2bff8183b302043c8de67b5e552ee2a","infoHashBuffer":{"type":"Buffer","data":[97,205,155,218,210,191,248,24,59,48,32,67,200,222,103,181,229,82,238,42]},"announce":[],"urlList":[]}}